<svg xmlns="http://www.w3.org/2000/svg" xmlns:xlink="http://www.w3.org/1999/xlink"><defs>
<linearGradient id="paint0_linear" x1="4.91415" y1="15.338" x2="31.354" y2="16.9979" gradientUnits="userSpaceOnUse">
<stop offset="0.288448" stop-color="white"/>
<stop offset="0.780176" stop-color="white" stop-opacity="0"/>
</linearGradient>
</defs><symbol id="icon-cart" viewBox="0 0 18 16" preserveAspectRatio="none">
<path d="M17.8961 3.05165C17.7931 2.91217 17.6273 2.82596 17.4472 2.8187L6.28162 2.36414C5.96126 2.3509 5.69355 2.58449 5.67986 2.88566C5.66624 3.1867 5.91317 3.44107 6.232 3.45401L16.6416 3.87783L14.5949 9.90922H5.48658L3.84103 1.44688C3.80486 1.26141 3.67004 1.10668 3.4841 1.03778L0.788965 0.0377747C0.491928 -0.0720606 0.156743 0.0657377 0.0400874 0.345938C-0.0763672 0.62629 0.0694931 0.943051 0.36637 1.05323L2.76277 1.94237L4.43736 10.5532C4.48784 10.8121 4.72671 11.0001 5.0055 11.0001H5.28328L4.64896 12.6642C4.59587 12.8036 4.61775 12.9584 4.7081 13.0795C4.79833 13.2006 4.94508 13.2727 5.10173 13.2727H5.54664C5.27095 13.5625 5.10173 13.944 5.10173 14.3636C5.10173 15.266 5.87913 16 6.83433 16C7.78953 16 8.56693 15.266 8.56693 14.3636C8.56693 13.9441 8.39771 13.5625 8.12206 13.2727H11.8996C11.6237 13.5625 11.4546 13.944 11.4546 14.3636C11.4546 15.266 12.2318 16 13.1872 16C14.1426 16 14.9198 15.266 14.9198 14.3636C14.9198 13.9441 14.7506 13.5625 14.475 13.2727H15.016C15.2819 13.2727 15.4973 13.0692 15.4973 12.8182C15.4973 12.5671 15.2819 12.3636 15.016 12.3636H5.78652L6.30624 11H15.016C15.2672 11 15.4894 10.8467 15.5659 10.621L17.9723 3.52998C18.0275 3.36814 17.9992 3.19119 17.8961 3.05165ZM6.83437 15.0911C6.40968 15.0911 6.0643 14.7649 6.0643 14.3638C6.0643 13.9627 6.40968 13.6365 6.83437 13.6365C7.25906 13.6365 7.6044 13.9627 7.6044 14.3638C7.6044 14.7649 7.25906 15.0911 6.83437 15.0911ZM13.1872 15.0911C12.7625 15.0911 12.4171 14.7649 12.4171 14.3638C12.4171 13.9627 12.7625 13.6365 13.1872 13.6365C13.6119 13.6365 13.9572 13.9627 13.9572 14.3638C13.9572 14.7649 13.6119 15.0911 13.1872 15.0911Z"/>
</symbol><symbol id="icon-facebook" viewBox="0 0 9 17" preserveAspectRatio="none">
<path d="M6.62377 0C4.27168 0 2.66088 1.40792 2.66088 3.99443V6.22354H0V9.24668H2.66088V17H5.84158V9.24668H8.49505L8.89357 6.22354H5.84158V4.2931C5.84158 3.41809 6.08977 2.8216 7.36882 2.8216H9V0.118982C8.71786 0.0821513 7.75042 0 6.62377 0Z"/>
</symbol><symbol id="icon-instagram" viewBox="0 0 18 18" preserveAspectRatio="none">
<path d="M5.20991 0C2.3366 0 0 2.34361 0 5.22393V12.7774C0 15.6577 2.3366 18 5.20991 18H12.7901C15.6634 18 18 15.6577 18 12.7774V5.22393C18 2.34361 15.6634 0 12.7901 0H5.20991ZM5.20991 1.54741H12.7901C14.835 1.54741 16.4577 3.17398 16.4577 5.22393V12.7774C16.4577 14.8273 14.835 16.4526 12.7901 16.4526H5.20991C3.16493 16.4526 1.54362 14.8273 1.54362 12.7774V5.22393C1.54362 3.17398 3.16493 1.54741 5.20991 1.54741ZM13.8308 3.0948C13.2345 3.0948 12.7514 3.57909 12.7514 4.17682C12.7514 4.77457 13.2345 5.25884 13.8308 5.25884C14.4271 5.25884 14.9102 4.77457 14.9102 4.17682C14.9102 3.57909 14.4271 3.0948 13.8308 3.0948ZM9 4.36555C6.45569 4.36555 4.37685 6.44948 4.37685 9C4.37685 11.5505 6.45569 13.6344 9 13.6344C11.5443 13.6344 13.6244 11.5505 13.6244 9C13.6244 6.44948 11.5443 4.36555 9 4.36555ZM9 5.91296C10.7102 5.91296 12.0808 7.28561 12.0808 9C12.0808 10.7144 10.7102 12.087 9 12.087C7.28978 12.087 5.92047 10.7144 5.92047 9C5.92047 7.28561 7.28978 5.91296 9 5.91296Z"/>
</symbol><symbol id="icon-like" viewBox="0 0 21 18" preserveAspectRatio="none">
<path d="M19.9686 5.77104C19.6912 3.00625 17.5306 1.00033 14.8266 1.00033C13.0251 1.00033 11.3757 1.87835 10.4475 3.28557C9.5278 1.86015 7.94595 1 6.17336 1C3.4697 1 1.30868 3.00592 1.0317 5.77071C1.00978 5.89283 0.919889 6.53555 1.19321 7.58368C1.58712 9.09548 2.49699 10.4706 3.82378 11.5594L10.4431 17L17.1761 11.5598C18.5029 10.4706 19.4128 9.09581 19.8067 7.58368C20.08 6.53588 19.9902 5.89316 19.9686 5.77104ZM19.0953 7.4321C18.7357 8.81284 17.9022 10.0708 16.6872 11.0676L10.4475 16.1097L4.31489 11.069C3.09772 10.0701 2.26459 8.81251 1.90466 7.43177C1.64595 6.4399 1.75229 5.87959 1.75265 5.87595L1.75813 5.84253C1.99565 3.42027 3.85229 1.66191 6.17336 1.66191C7.88602 1.66191 9.39369 2.61506 10.1092 4.14903L10.4457 4.87151L10.7822 4.14903C11.4864 2.63856 13.0737 1.66224 14.8269 1.66224C17.1476 1.66224 19.0047 3.4206 19.2469 5.8743C19.2476 5.87959 19.354 6.44023 19.0953 7.4321Z" stroke-width="0.75"/>
</symbol><symbol id="icon-search" viewBox="0 0 16 16" preserveAspectRatio="none">
<path d="M15.8041 14.8637L11.9576 11.0171C12.911 9.85469 13.4857 8.36571 13.4857 6.74286C13.4857 3.02041 10.4653 0 6.74286 0C3.01714 0 0 3.02041 0 6.74286C0 10.4653 3.01714 13.4857 6.74286 13.4857C8.36571 13.4857 9.85143 12.9143 11.0139 11.9608L14.8604 15.8041C15.1216 16.0653 15.5429 16.0653 15.8041 15.8041C16.0653 15.5461 16.0653 15.1216 15.8041 14.8637ZM6.74286 12.1437C3.76163 12.1437 1.33878 9.72082 1.33878 6.74286C1.33878 3.7649 3.76163 1.33878 6.74286 1.33878C9.72082 1.33878 12.1469 3.7649 12.1469 6.74286C12.1469 9.72082 9.72082 12.1437 6.74286 12.1437Z"/>
</symbol><symbol id="icon-twitter" viewBox="0 0 17 14" preserveAspectRatio="none">
<path d="M17 1.65702C16.3748 1.93818 15.7026 2.1282 14.9972 2.21381C15.7171 1.7762 16.2699 1.0836 16.5303 0.258489C15.8565 0.663669 15.1104 0.957564 14.3156 1.11598C13.6797 0.429253 12.7733 0 11.7702 0C9.84399 0 8.28278 1.58229 8.28278 3.53421C8.28278 3.81132 8.31334 4.08115 8.37304 4.33966C5.47446 4.19246 2.90469 2.78497 1.18455 0.646903C0.884335 1.16866 0.712366 1.7757 0.712366 2.42352C0.712366 3.64988 1.32781 4.73148 2.26388 5.36553C1.69221 5.34741 1.15438 5.18836 0.684154 4.92345C0.683485 4.93834 0.68348 4.95302 0.68348 4.96781C0.68348 6.68053 1.88579 8.10868 3.48108 8.43358C3.18868 8.51437 2.88065 8.55709 2.56255 8.55709C2.33759 8.55709 2.11949 8.53552 1.90617 8.49408C2.35027 9.89816 3.63801 10.9201 5.1644 10.9487C3.96982 11.8968 2.46628 12.4616 0.832201 12.4616C0.55089 12.4616 0.273057 12.4448 0 12.4123C1.54405 13.4151 3.37699 14 5.34672 14C11.7614 14 15.2689 8.61468 15.2689 3.94383C15.2689 3.79067 15.2654 3.63855 15.2591 3.48698C15.9402 2.98827 16.5314 2.36595 16.9992 1.65705"/>
</symbol><symbol id="logo-footer" viewBox="0 0 130 35" preserveAspectRatio="none">
<path d="M39.558 16.892C40.118 16.892 40.594 16.9713 40.986 17.13C41.378 17.2887 41.7607 17.5127 42.134 17.802C42.2367 17.886 42.3253 17.928 42.4 17.928C42.5867 17.928 42.708 17.648 42.764 17.088H43.086C43.0487 17.7227 43.03 18.852 43.03 20.476H42.708C42.624 19.7853 42.512 19.258 42.372 18.894C42.232 18.53 41.994 18.2127 41.658 17.942C41.4247 17.718 41.154 17.55 40.846 17.438C40.538 17.3167 40.216 17.256 39.88 17.256C38.9373 17.256 38.2373 17.718 37.78 18.642C37.3227 19.5567 37.094 20.7 37.094 22.072C37.094 23.4347 37.332 24.5733 37.808 25.488C38.284 26.4027 38.9933 26.86 39.936 26.86C40.2533 26.86 40.566 26.804 40.874 26.692C41.1913 26.5707 41.4573 26.398 41.672 26.174C42.0173 25.9127 42.2553 25.586 42.386 25.194C42.526 24.802 42.6333 24.228 42.708 23.472H43.03C43.03 25.1613 43.0487 26.3373 43.086 27H42.764C42.736 26.7013 42.694 26.4913 42.638 26.37C42.5913 26.2393 42.5213 26.174 42.428 26.174C42.3533 26.174 42.2553 26.2113 42.134 26.286C41.714 26.5847 41.3127 26.8133 40.93 26.972C40.5473 27.1213 40.0853 27.196 39.544 27.196C38.5547 27.196 37.6867 26.9953 36.94 26.594C36.2027 26.1927 35.6287 25.614 35.218 24.858C34.8073 24.0927 34.602 23.1827 34.602 22.128C34.602 21.1013 34.812 20.1913 35.232 19.398C35.652 18.6047 36.2353 17.9887 36.982 17.55C37.738 17.1113 38.5967 16.892 39.558 16.892ZM51.3891 16.892C52.3784 16.892 53.2418 17.0927 53.9791 17.494C54.7258 17.8953 55.3044 18.4787 55.7151 19.244C56.1258 20 56.3311 20.9053 56.3311 21.96C56.3311 22.9867 56.1211 23.8967 55.7011 24.69C55.2811 25.4833 54.6931 26.0993 53.9371 26.538C53.1904 26.9767 52.3364 27.196 51.3751 27.196C50.3858 27.196 49.5178 26.9953 48.7711 26.594C48.0338 26.1927 47.4598 25.614 47.0491 24.858C46.6384 24.0927 46.4331 23.1827 46.4331 22.128C46.4331 21.1013 46.6431 20.1913 47.0631 19.398C47.4831 18.6047 48.0664 17.9887 48.8131 17.55C49.5691 17.1113 50.4278 16.892 51.3891 16.892ZM51.3331 17.144C50.8198 17.144 50.3671 17.354 49.9751 17.774C49.5831 18.1847 49.2798 18.7633 49.0651 19.51C48.8598 20.2567 48.7571 21.1107 48.7571 22.072C48.7571 23.0427 48.8738 23.8967 49.1071 24.634C49.3498 25.3713 49.6718 25.9407 50.0731 26.342C50.4838 26.7433 50.9364 26.944 51.4311 26.944C51.9444 26.944 52.3971 26.7387 52.7891 26.328C53.1811 25.908 53.4798 25.3247 53.6851 24.578C53.8998 23.8313 54.0071 22.9773 54.0071 22.016C54.0071 21.0453 53.8858 20.1913 53.6431 19.454C53.4098 18.7167 53.0878 18.1473 52.6771 17.746C52.2758 17.3447 51.8278 17.144 51.3331 17.144ZM68.4853 17.368C68.1773 17.4147 67.9486 17.494 67.7993 17.606C67.6593 17.718 67.5613 17.8953 67.5053 18.138C67.4586 18.3807 67.4353 18.74 67.4353 19.216V27.028L67.0993 27.014L66.7213 27.028L60.6453 19.328V24.704C60.6453 25.2547 60.6733 25.6607 60.7293 25.922C60.7853 26.174 60.9066 26.3607 61.0933 26.482C61.2799 26.594 61.5833 26.6733 62.0033 26.72V27C61.6393 26.972 61.1353 26.958 60.4913 26.958C59.9779 26.958 59.5719 26.972 59.2733 27V26.72C59.5813 26.6733 59.8053 26.594 59.9453 26.482C60.0946 26.37 60.1926 26.1927 60.2393 25.95C60.2953 25.7073 60.3233 25.348 60.3233 24.872V18.572C60.3233 18.2173 60.2953 17.9607 60.2393 17.802C60.1926 17.6433 60.0946 17.536 59.9453 17.48C59.8053 17.424 59.5813 17.3867 59.2733 17.368V17.088C59.5719 17.116 59.9779 17.13 60.4913 17.13C60.9579 17.13 61.3593 17.116 61.6953 17.088L67.1133 23.766V19.384C67.1133 18.8333 67.0853 18.432 67.0293 18.18C66.9733 17.9187 66.8519 17.732 66.6653 17.62C66.4786 17.4987 66.1753 17.4147 65.7553 17.368V17.088C66.1193 17.116 66.6233 17.13 67.2673 17.13C67.7899 17.13 68.1959 17.116 68.4853 17.088V17.368ZM81.6991 26.902C81.5404 27.9567 81.2184 28.6847 80.7331 29.086C80.5278 29.254 80.2664 29.3847 79.9491 29.478C79.6411 29.5807 79.3004 29.632 78.9271 29.632C78.4231 29.632 77.9238 29.5527 77.4291 29.394C76.9438 29.2353 76.3418 28.9973 75.6231 28.68C75.4458 28.6053 75.2498 28.5213 75.0351 28.428C74.8298 28.344 74.5964 28.2507 74.3351 28.148L73.9991 28.05C73.8218 28.1433 73.6258 28.2133 73.4111 28.26C73.2058 28.316 73.0098 28.344 72.8231 28.344C72.6271 28.344 72.4684 28.3113 72.3471 28.246C72.2258 28.19 72.1651 28.1013 72.1651 27.98C72.1651 27.728 72.4218 27.602 72.9351 27.602C73.2804 27.602 73.6351 27.6673 73.9991 27.798C74.3164 27.7047 74.6524 27.5787 75.0071 27.42C75.0724 27.392 75.1704 27.35 75.3011 27.294C75.4318 27.2473 75.5484 27.2053 75.6511 27.168C74.7831 27.084 74.0224 26.832 73.3691 26.412C72.7251 25.9827 72.2258 25.404 71.8711 24.676C71.5258 23.948 71.3531 23.0987 71.3531 22.128C71.3531 21.1013 71.5631 20.1913 71.9831 19.398C72.4031 18.6047 72.9864 17.9887 73.7331 17.55C74.4891 17.1113 75.3478 16.892 76.3091 16.892C77.2984 16.892 78.1618 17.0927 78.8991 17.494C79.6458 17.8953 80.2244 18.4787 80.6351 19.244C81.0458 20 81.2511 20.9053 81.2511 21.96C81.2511 22.9493 81.0551 23.836 80.6631 24.62C80.2711 25.3947 79.7204 26.006 79.0111 26.454C78.3018 26.902 77.4944 27.1447 76.5891 27.182C76.3651 27.21 76.1644 27.252 75.9871 27.308C75.8098 27.364 75.5998 27.4433 75.3571 27.546C75.0584 27.6767 74.7691 27.784 74.4891 27.868L75.6231 27.966C76.8084 28.0687 77.6624 28.12 78.1851 28.12C78.5304 28.12 78.8804 28.0967 79.2351 28.05C79.8138 27.9847 80.2711 27.8587 80.6071 27.672C80.9431 27.4947 81.2231 27.2147 81.4471 26.832L81.6991 26.902ZM73.6771 22.072C73.6771 23.0427 73.7938 23.8967 74.0271 24.634C74.2698 25.3713 74.5918 25.9407 74.9931 26.342C75.4038 26.7433 75.8564 26.944 76.3511 26.944C76.8644 26.944 77.3171 26.7387 77.7091 26.328C78.1011 25.908 78.3998 25.3247 78.6051 24.578C78.8198 23.8313 78.9271 22.9773 78.9271 22.016C78.9271 21.0453 78.8058 20.1913 78.5631 19.454C78.3298 18.7167 78.0078 18.1473 77.5971 17.746C77.1958 17.3447 76.7478 17.144 76.2531 17.144C75.7398 17.144 75.2871 17.354 74.8951 17.774C74.5031 18.1847 74.1998 18.7633 73.9851 19.51C73.7798 20.2567 73.6771 21.1107 73.6771 22.072ZM93.1383 17.368C92.8303 17.4147 92.6016 17.494 92.4523 17.606C92.3123 17.718 92.2143 17.8953 92.1583 18.138C92.1116 18.3807 92.0883 18.74 92.0883 19.216V22.926C92.0883 24.2607 91.897 25.25 91.5143 25.894C91.2623 26.3047 90.8983 26.6267 90.4223 26.86C89.9463 27.084 89.363 27.196 88.6723 27.196C87.5896 27.196 86.7496 26.9627 86.1523 26.496C85.723 26.1507 85.4336 25.7167 85.2843 25.194C85.135 24.662 85.0603 23.92 85.0603 22.968V18.572C85.0603 18.2173 85.0323 17.9607 84.9763 17.802C84.9296 17.6433 84.8316 17.536 84.6823 17.48C84.5423 17.424 84.3183 17.3867 84.0103 17.368V17.088C84.4863 17.116 85.2143 17.13 86.1943 17.13C87.165 17.13 87.907 17.116 88.4203 17.088V17.368C88.0843 17.3867 87.837 17.424 87.6783 17.48C87.529 17.536 87.4263 17.6433 87.3703 17.802C87.3143 17.9607 87.2863 18.2173 87.2863 18.572V23.85C87.2863 24.83 87.4263 25.5533 87.7063 26.02C87.9956 26.4773 88.4996 26.706 89.2183 26.706C90.1516 26.706 90.8096 26.3933 91.1923 25.768C91.575 25.1333 91.7663 24.2373 91.7663 23.08V19.384C91.7663 18.8427 91.7336 18.4413 91.6683 18.18C91.603 17.9187 91.477 17.732 91.2903 17.62C91.1036 17.4987 90.8096 17.4147 90.4083 17.368V17.088C90.763 17.116 91.267 17.13 91.9203 17.13C92.443 17.13 92.849 17.116 93.1383 17.088V17.368ZM103.505 24.872C103.505 25.7307 103.537 26.44 103.603 27C102.968 26.972 101.899 26.958 100.397 26.958C98.362 26.958 96.8406 26.972 95.8326 27V26.72C96.1406 26.7013 96.3646 26.664 96.5046 26.608C96.654 26.552 96.752 26.4447 96.7986 26.286C96.8546 26.1273 96.8826 25.8707 96.8826 25.516V18.572C96.8826 18.2173 96.8546 17.9607 96.7986 17.802C96.752 17.6433 96.654 17.536 96.5046 17.48C96.3646 17.424 96.1406 17.3867 95.8326 17.368V17.088C96.8406 17.116 98.362 17.13 100.397 17.13C101.769 17.13 102.744 17.116 103.323 17.088C103.257 17.8627 103.225 18.5533 103.225 19.16C103.225 19.5707 103.239 19.888 103.267 20.112H102.945C102.805 19.1133 102.553 18.4133 102.189 18.012C101.825 17.6107 101.311 17.41 100.649 17.41H100.075C99.7853 17.41 99.5753 17.4333 99.4446 17.48C99.314 17.5267 99.2253 17.62 99.1786 17.76C99.132 17.8907 99.1086 18.1053 99.1086 18.404V21.876H99.5566C100.051 21.876 100.425 21.694 100.677 21.33C100.938 20.966 101.12 20.532 101.223 20.028H101.545C101.517 20.42 101.503 20.8587 101.503 21.344V22.016C101.503 22.492 101.531 23.1547 101.587 24.004H101.265C101.069 22.772 100.499 22.156 99.5566 22.156H99.1086V25.684C99.1086 25.9827 99.132 26.202 99.1786 26.342C99.2253 26.4727 99.314 26.5613 99.4446 26.608C99.5753 26.6547 99.7853 26.678 100.075 26.678H100.761C101.423 26.678 101.955 26.454 102.357 26.006C102.767 25.5487 103.057 24.7787 103.225 23.696H103.547C103.519 24.004 103.505 24.396 103.505 24.872ZM110.166 16.906C110.651 16.906 111.038 16.9527 111.328 17.046C111.617 17.1393 111.911 17.2747 112.21 17.452C112.312 17.508 112.401 17.5547 112.476 17.592C112.56 17.6293 112.63 17.648 112.686 17.648C112.77 17.648 112.835 17.6013 112.882 17.508C112.928 17.4053 112.966 17.2467 112.994 17.032H113.316C113.269 17.6573 113.246 18.7213 113.246 20.224H112.924C112.886 19.72 112.77 19.2393 112.574 18.782C112.387 18.3247 112.116 17.956 111.762 17.676C111.416 17.3867 111.01 17.242 110.544 17.242C110.086 17.242 109.713 17.3727 109.424 17.634C109.144 17.886 109.004 18.2313 109.004 18.67C109.004 18.9967 109.074 19.2813 109.214 19.524C109.354 19.7667 109.55 19.9907 109.802 20.196C110.054 20.392 110.441 20.6627 110.964 21.008L111.412 21.316C111.962 21.68 112.396 21.9973 112.714 22.268C113.031 22.5387 113.288 22.856 113.484 23.22C113.689 23.5747 113.792 23.99 113.792 24.466C113.792 25.0633 113.638 25.5673 113.33 25.978C113.022 26.3793 112.602 26.6827 112.07 26.888C111.547 27.0933 110.964 27.196 110.32 27.196C109.797 27.196 109.363 27.1493 109.018 27.056C108.672 26.9627 108.355 26.8367 108.066 26.678C107.86 26.5473 107.702 26.482 107.59 26.482C107.506 26.482 107.44 26.5333 107.394 26.636C107.347 26.7293 107.31 26.8833 107.282 27.098H106.96C106.997 26.51 107.016 25.25 107.016 23.318H107.338C107.403 24.3633 107.636 25.2127 108.038 25.866C108.439 26.51 109.055 26.832 109.886 26.832C110.39 26.832 110.805 26.6967 111.132 26.426C111.458 26.1553 111.622 25.768 111.622 25.264C111.622 24.7413 111.454 24.2933 111.118 23.92C110.782 23.5467 110.25 23.1267 109.522 22.66C108.962 22.296 108.514 21.9787 108.178 21.708C107.842 21.4373 107.566 21.12 107.352 20.756C107.137 20.3827 107.03 19.9533 107.03 19.468C107.03 18.908 107.17 18.4367 107.45 18.054C107.739 17.662 108.122 17.3727 108.598 17.186C109.074 16.9993 109.596 16.906 110.166 16.906ZM125.313 17.088C125.248 17.9747 125.215 18.768 125.215 19.468C125.215 19.9067 125.229 20.2613 125.257 20.532H124.935C124.711 19.384 124.403 18.5767 124.011 18.11C123.629 17.6433 123.101 17.41 122.429 17.41H122.107V25.404C122.107 25.796 122.145 26.0807 122.219 26.258C122.303 26.4353 122.443 26.5567 122.639 26.622C122.845 26.678 123.167 26.7107 123.605 26.72V27C122.429 26.972 121.543 26.958 120.945 26.958C120.357 26.958 119.503 26.972 118.383 27V26.72C118.822 26.7107 119.139 26.678 119.335 26.622C119.541 26.5567 119.681 26.4353 119.755 26.258C119.839 26.0807 119.881 25.796 119.881 25.404V17.41H119.573C119.125 17.41 118.743 17.508 118.425 17.704C118.117 17.9 117.851 18.2267 117.627 18.684C117.403 19.132 117.212 19.748 117.053 20.532H116.731C116.759 20.2613 116.773 19.9067 116.773 19.468C116.773 18.768 116.741 17.9747 116.675 17.088C117.525 17.116 118.967 17.13 121.001 17.13C123.036 17.13 124.473 17.116 125.313 17.088Z" fill="white"/>
<path d="M27.1835 11.5383C28.2138 13.4597 28.6449 15.5392 28.5432 17.5662C28.3469 21.4824 26.1638 25.1977 22.4601 27.1836C20.2951 28.3445 17.9286 28.7449 15.6625 28.4789C12.0343 28.0529 8.67015 25.9203 6.81481 22.4602C3.79881 16.8355 5.91356 9.83085 11.5382 6.81486C12.8783 6.09632 14.2943 5.66964 15.7152 5.51132C17.7979 5.27927 19.8948 5.62349 21.7774 6.47653C24.0085 7.48751 25.9361 9.21181 27.1835 11.5383Z" stroke="url(#paint0_linear)" stroke-width="2"/>

</symbol></svg>